<svg width="363" height="363" viewBox="0 0 363 363" fill="none" xmlns="http://www.w3.org/2000/svg">
<g clip-path="url(#clip0_124_1780)">
<path d="M301.88 211.56C300.89 210.14 299.56 208.95 298.04 208.13C294.83 206.4 291.32 206.12 288.11 207.17L261.56 215.91C256.07 217.72 250.15 214.71 248.37 209.21L186.67 17.8301C185.85 13.8401 183.08 10.3401 179 8.79005C177.2 8.11005 175.28 7.86005 173.36 8.06005C168.66 8.56005 164.72 11.8701 163.05 16.3001L60.7999 286.91C59.2699 290.97 59.9399 295.49 62.7899 299.06C63.5299 299.98 64.4099 300.79 65.3999 301.43C67.5099 302.81 69.8699 303.52 72.2799 303.52C73.9099 303.52 75.4799 303.16 76.9399 302.55L225.86 253.51C231.35 251.7 237.27 254.71 239.05 260.21L245.3 279.6C247.05 285.03 244.11 290.87 238.69 292.68L178.63 312.83C170.69 315.5 167.27 325.54 173.43 332.78C174.19 333.67 175.11 334.44 176.13 335.02C179.44 336.89 183.11 337.22 186.44 336.11L267.65 308.86C272.89 307.1 276.15 302.14 276.01 296.88C276.01 295.61 275.84 294.31 275.43 293.04L262.33 252.41C260.57 246.95 263.55 241.1 268.99 239.31L295.5 230.58C298.25 229.67 300.7 227.94 302.27 225.5C305 221.25 304.93 215.9 301.9 211.56H301.88ZM97.1899 260.03L165.05 80.4201C167.91 72.8501 178.71 73.1201 181.19 80.8201L225.1 217.01C226.86 222.47 223.88 228.32 218.44 230.11L104.48 267.64C99.8099 269.18 95.4499 264.62 97.1899 260.02V260.03Z" fill="#161B1D"/>
<path d="M222.162 268.774L144.544 294.594C140.168 296.05 137.8 300.775 139.255 305.148C140.71 309.522 145.437 311.887 149.812 310.431L227.43 284.611C231.806 283.155 234.174 278.43 232.719 274.057C231.265 269.684 226.538 267.319 222.162 268.774Z" fill="#161B1D"/>
<path d="M266.417 322.078L203.686 342.946C200.154 344.121 198.244 347.937 199.418 351.469L199.422 351.478C200.597 355.01 204.412 356.921 207.945 355.746L270.675 334.879C274.207 333.704 276.118 329.888 274.943 326.356L274.94 326.346C273.765 322.814 269.949 320.903 266.417 322.078Z" fill="#161B1D"/>
</g>
<defs>
<clipPath id="clip0_124_1780">
<rect width="244.23" height="348.1" fill="white" transform="translate(60 8)"/>
</clipPath>
</defs>
</svg>
