<svg width="439" height="390" viewBox="0 0 439 390" fill="none" xmlns="http://www.w3.org/2000/svg">
<path d="M2 362.521C2 377.497 12.4723 387.228 28.5051 387.228C45.2794 387.228 55.2698 377.72 55.2698 361.057V307.231H38.8663V360.946C38.8663 368.823 35.1778 373.049 28.3384 373.049C22.1479 373.049 18.0142 368.878 17.9031 362.521H2ZM104.258 305.878C81.0148 305.878 66.4648 321.466 66.4648 346.451C66.4648 371.362 81.0148 386.95 104.258 386.95C127.445 386.95 142.05 371.362 142.05 346.451C142.05 321.466 127.445 305.878 104.258 305.878ZM104.258 319.557C117.065 319.557 125.276 329.992 125.276 346.451C125.276 362.836 117.065 373.216 104.258 373.216C91.376 373.216 83.1835 362.836 83.1835 346.451C83.1835 329.992 91.4316 319.557 104.258 319.557ZM186.646 385.597V356.33L213.948 307.231H196.358L178.769 340.687H178.379L160.845 307.231H142.978L170.242 356.33V385.597H186.646Z" fill="#FF0000" stroke="#FF0000" stroke-width="3.77953" stroke-miterlimit="22.9256"/>
<path d="M266.454 385.736V320.901H289.16V307.37H227.42V320.901H250.051V385.736H266.454ZM329.232 306.017C305.99 306.017 291.44 321.605 291.44 346.59C291.44 371.501 305.99 387.089 329.232 387.089C352.42 387.089 367.025 371.501 367.025 346.59C367.025 321.605 352.42 306.017 329.232 306.017ZM329.232 319.696C342.04 319.696 350.252 330.131 350.252 346.59C350.252 362.975 342.04 373.355 329.232 373.355C316.351 373.355 308.159 362.975 308.159 346.59C308.159 330.131 316.407 319.696 329.232 319.696ZM377.572 307.37V385.736H393.957V361.029H408.618C425.133 361.029 436.587 350.279 436.587 334.209C436.587 318.083 425.503 307.37 409.434 307.37H377.572ZM393.957 320.363H405.097C414.494 320.363 419.924 325.349 419.924 334.264C419.924 343.217 414.438 348.221 405.041 348.221H393.957V320.363Z" fill="#3300CC" stroke="#3300CC" stroke-width="3.77953" stroke-miterlimit="22.9256"/>
<path fill-rule="evenodd" clip-rule="evenodd" d="M38.6641 289.346H56.8292V179.489L93.4589 162.638V146.001L55.6852 163.459V138.228L92.6414 122.808V105.653L56.1232 123.127V100.692L92.6111 85.7095V67.2404L55.966 83.2192V58.2992L123.386 24.9974V198.423L140.532 184.314V23.0959L235.572 62.7579V83.805L252.165 77.1073V51.7841L130.05 0L39.3092 47.2713L38.6641 289.346ZM211.257 126.116V107.618L308.207 67.4101L399.923 113.277V289.346H381.683V204.686L347.234 189.256V171.978L382.956 188.75V165.553L347.547 150.185V133.83L383.545 149.151V123.562L315.689 90.8232V197.974L299.541 184.969V87.0856L227.203 117.955L227.147 126.663L218.781 119.924L211.257 126.116Z" fill="#3300CC"/>
<path fill-rule="evenodd" clip-rule="evenodd" d="M129.862 289.346V230.818L218.859 158.812L307.992 231.107V289.346H325.935V220.979L218.859 134.74L112.651 222.136V289.346H129.862Z" fill="#3300CC"/>
<path fill-rule="evenodd" clip-rule="evenodd" d="M218.937 289.346C211.779 281.628 204.62 273.91 197.462 266.191C183.071 249.248 171.312 231.675 182.156 208.689C189.649 196.746 199.53 187.126 218.542 186.389C243.672 187.493 255.502 202.102 260.425 223.724C262.111 236.84 254.733 250.368 242.74 264.105C234.806 272.519 226.871 280.933 218.937 289.346Z" fill="#FF0000"/>
<path fill-rule="evenodd" clip-rule="evenodd" d="M219.009 194.532C236.533 194.532 250.739 208.738 250.739 226.261C250.739 243.785 236.533 257.99 219.009 257.99C201.486 257.99 187.28 243.785 187.28 226.261C187.28 208.738 201.486 194.532 219.009 194.532Z" fill="#FEFEFE"/>
<path fill-rule="evenodd" clip-rule="evenodd" d="M219.01 198.678C234.244 198.678 246.594 211.028 246.594 226.261C246.594 241.496 234.244 253.845 219.01 253.845C203.776 253.845 191.427 241.496 191.427 226.261C191.427 211.028 203.776 198.678 219.01 198.678Z" fill="#FECC00"/>
<path fill-rule="evenodd" clip-rule="evenodd" d="M192.051 232.114H245.97C243.286 244.536 232.236 253.845 219.01 253.845C205.784 253.845 194.735 244.536 192.051 232.114Z" fill="#00FFFF"/>
<path fill-rule="evenodd" clip-rule="evenodd" d="M219.01 200.393C226.562 200.393 232.685 204.966 232.685 210.609C232.685 216.251 226.562 220.824 219.01 220.824C211.457 220.824 205.335 216.251 205.335 210.609C205.335 204.966 211.457 200.393 219.01 200.393Z" fill="#FEFEFE" fill-opacity="0.501961"/>
<path fill-rule="evenodd" clip-rule="evenodd" d="M234.418 222.356C233.778 223.489 234.314 223.06 234.474 224.239C234.583 225.039 235.842 229.409 236.079 229.694C236.378 229.331 236.103 229.034 236.375 228.229C236.522 227.791 236.327 228.109 236.57 227.788C237.042 227.777 237.584 227.767 238.054 227.784C239.25 227.827 238.348 228.047 239.147 228.133C239.268 227.95 239.222 227.972 239.317 227.817L239.83 226.885C240.185 226.382 240.536 226.603 240.753 225.97C241.166 224.762 240.589 223.871 241.237 222.629C241.669 223.009 241.629 222.912 241.618 223.608C241.601 224.595 241.419 226.592 241.848 227.292C242.137 226.961 241.849 226.591 242.107 226.077C242.252 225.789 242.628 225.536 242.953 225.392C243.899 225.947 243.811 226.122 243.862 227.422C244.49 227.78 244.666 227.715 245.497 227.702L243.71 228.016C243.697 228.02 243.664 228.034 243.651 228.038L243.29 228.19C243.233 227.339 242.954 227.241 242.954 227.24L242.702 227.013C242.213 226.77 242.248 227.023 242.247 227.024C241.982 226.851 242.544 226.817 242.135 227.301C241.884 227.599 242.733 227.542 241.633 227.546L242.217 227.761L242.035 228.094C242.019 228.119 241.971 228.193 241.94 228.221L241.535 228.09C241.511 228.084 241.44 228.052 241.409 228.044C240.815 227.89 240.848 228.068 240.13 228.068C240.196 228.076 240.166 227.916 239.872 227.93C239.847 227.931 239.763 227.948 239.74 227.949L239.515 227.914C239.718 228.54 239.608 228.314 239.608 229.141C239.491 229.155 239.444 229.131 239.147 229.218C238.623 228.299 238.633 229.235 238.565 228.313C238.088 228.313 237.068 228.158 237.254 228.878C237.385 229.383 237.401 229.229 237.91 229.249L238.475 229.177C238.498 229.173 238.536 229.167 238.554 229.163L236.969 229.172L237.01 230.462L236.661 230.461C236.487 230.752 236.964 230.502 236.454 230.198L236.079 230C236.02 230.082 236.098 229.955 236.101 230.052L236.09 230.187C236.089 230.194 236.087 230.228 236.079 230.246C235.588 230.196 235.33 230.189 234.943 230.246C234.955 230.189 234.891 229.886 235.219 230C233.507 230 234.056 230.078 233.838 229.695L235.309 229.71C235.304 229.182 234.197 226.566 233.94 225.905C234.139 225.557 233.867 225.784 234.298 225.581C234.283 225.567 234.249 225.53 234.242 225.549C234.235 225.567 234.194 225.521 234.185 225.516L233.839 225.336L233.871 224.018C233.7 222.965 233.38 223.412 233.04 223.249C233.442 223.099 233.419 223.001 233.44 222.451C233.445 222.839 233.459 222.837 233.654 223.095C233.759 222.684 233.692 222.673 233.624 222.144C233.982 222.264 233.917 222.262 233.947 222.246C233.956 222.24 233.978 222.213 233.988 222.205L234.237 221.899C234.465 222.145 234.439 221.941 234.418 222.356Z" fill="#3300CC"/>
<path fill-rule="evenodd" clip-rule="evenodd" d="M203.623 225.454C203.8 224.179 203.802 224.742 204.163 223.99C206.328 223.42 206.323 225.045 206.065 225.634C205.8 226.24 204.792 226.829 203.871 225.75C203.71 225.563 203.804 225.644 203.623 225.454Z" fill="#3300CC"/>
<path fill-rule="evenodd" clip-rule="evenodd" d="M232.759 226.06C232.472 226.419 231.469 229.019 231.34 229.707L232.79 229.68L232.759 226.06ZM233.154 202.577C233.261 202.641 233.367 202.706 233.474 202.771L233.582 209.624L234.433 210.114L234.441 211.197C233.354 212.036 233.954 211.835 234.002 212.489C234.003 212.502 234.002 212.535 234.002 212.548C233.958 213.146 233.812 212.834 233.86 214.665C233.878 215.339 233.956 215.217 234.014 215.482C234.019 215.503 234.03 215.537 234.033 215.558C234.058 215.763 233.936 216.019 233.92 216.489C233.909 216.835 233.93 217.25 233.933 217.604C233.936 217.949 234.001 218.439 234.024 218.651C234.09 219.269 233.731 219.349 234.088 219.706L234.443 220.092C235.05 220.986 234.491 222.083 234.418 222.356C234.439 221.941 234.465 222.145 234.237 221.899L233.988 222.205C233.978 222.213 233.956 222.24 233.947 222.246C233.917 222.262 233.982 222.265 233.624 222.144C233.692 222.673 233.759 222.684 233.654 223.095C233.459 222.837 233.445 222.839 233.44 222.451C233.419 223.001 233.442 223.099 233.04 223.249C233.38 223.412 233.7 222.965 233.871 224.018L233.839 225.336L234.185 225.516C234.194 225.521 234.235 225.567 234.242 225.549C234.249 225.53 234.283 225.567 234.298 225.582C233.867 225.784 234.139 225.557 233.94 225.905L233.838 229.696C234.056 230.078 233.507 230 235.219 230C234.891 229.886 234.955 230.189 234.943 230.246C235.33 230.189 235.588 230.196 236.079 230.246C236.088 230.228 236.089 230.194 236.09 230.187L236.101 230.052C236.098 229.955 236.02 230.082 236.079 230L236.454 230.198C236.964 230.502 236.487 230.752 236.661 230.461L237.01 230.462L236.969 229.172L238.554 229.163C238.536 229.167 238.498 229.174 238.475 229.177L237.91 229.25C237.401 229.229 237.385 229.383 237.254 228.878C237.068 228.158 238.088 228.313 238.565 228.313C238.633 229.235 238.623 228.299 239.147 229.218C239.444 229.131 239.491 229.155 239.608 229.141C239.608 228.314 239.718 228.54 239.515 227.914L239.74 227.949C239.763 227.948 239.847 227.931 239.872 227.93C240.166 227.916 240.196 228.076 240.13 228.068C240.848 228.068 240.815 227.89 241.409 228.044C241.44 228.052 241.512 228.084 241.535 228.09L241.941 228.221C241.971 228.193 242.019 228.119 242.035 228.094L242.217 227.761L241.633 227.546C242.733 227.542 241.884 227.599 242.135 227.302C242.544 226.817 241.982 226.851 242.247 227.024C242.247 227.024 242.213 226.77 242.702 227.013L242.955 227.24C242.955 227.24 243.233 227.339 243.29 228.191L243.652 228.038C243.664 228.034 243.697 228.02 243.71 228.016L245.497 227.702L245.654 226.968L246.585 226.967C246.541 228.729 246.329 230.449 245.97 232.113H192.051C191.643 230.227 191.427 228.27 191.427 226.261C191.427 225.563 191.454 224.871 191.504 224.185C192.137 224.548 192.574 225.139 193.05 225.258C193.987 225.495 195.876 225.281 196.986 225.501C196.894 226.709 196.165 227.345 196.503 229.711L197.319 229.666C197.349 229.16 197.246 229.265 197.47 228.859C197.781 228.299 197.373 229.036 197.577 228.714L197.661 228.587C197.771 228.384 197.65 228.577 197.733 228.399L197.793 228.276C197.808 228.25 197.864 228.179 197.88 228.149C198.195 227.566 198.174 223.743 197.86 223.387L198.1 223.153C198.358 223.044 198.226 223.11 198.412 223.016C198.43 223.007 198.474 223.003 198.488 222.965C198.708 222.351 198.78 222.837 198.404 222.132C198.39 222.105 198.379 222.073 198.364 222.047L198.211 221.755C198.2 221.694 198.165 221.686 198.14 221.654L197.908 221.531L198.232 221.243C198.531 221.037 198.875 220.832 199.245 220.841C199.806 220.855 200.247 221.175 200.747 221.283C200.546 221.575 200.496 221.474 200.386 221.777C199.8 221.912 200.03 222.013 199.468 222.144L199.485 222.537L199.413 222.088C199.112 222.231 199.192 222.219 199.039 222.375L198.857 222.635C199.007 222.777 198.59 222.755 199.169 222.75L199.093 223.221C199.309 223.113 199.259 222.953 199.516 222.904C199.842 222.843 199.766 222.972 199.856 222.996C199.885 223.003 200.183 223.084 200.406 223.02L200.626 223.091C200.391 223.943 200.326 226.445 200.512 227.424C200.76 227.695 200.406 227.535 200.968 227.631L202.816 227.684C203.031 229.317 202.489 229.736 203.379 229.699C203.826 227.608 202.695 227.208 204.899 226.389C205.608 226.617 206.084 226.959 206.245 227.813C206.515 229.245 205.847 229.683 206.881 229.726L206.949 228.119L209.305 228.085L209.585 227.43C209.779 226.935 209.198 227.676 209.771 227.423C209.869 227.091 209.965 224.891 209.98 224.376L211.405 224.324C211.405 225.176 211.532 225.62 211.529 226.562C211.527 226.976 211.521 227.385 211.516 227.798C211.499 229.055 211.523 228.784 211.847 228.705C212.548 228.794 211.912 228.565 212.147 229.104L213.003 229.279C213.04 228.029 213.053 226.321 212.975 225.084C212.913 224.086 212.754 225.096 212.747 223.247C212.742 222.008 212.578 222.414 213.317 221.899L213.399 220.819C214.862 220.7 216.151 220.674 217.673 220.706C219.119 220.735 218.165 221.131 219.372 221.124C220.105 221.12 220.751 221.054 221.502 221.124L221.54 224.158C222.053 224.299 224.244 223.887 225.439 224.053C225.455 222.478 225.443 220.896 225.443 219.321C225.443 217.327 225.123 216.657 226.381 215.633C226.628 215.762 226.926 216.024 227.039 216.243C227.057 216.277 227.077 216.321 227.09 216.346C227.104 216.369 227.125 216.417 227.141 216.444L227.362 216.797L228.1 216.787L228.453 216.256C228.527 215.969 228.72 215.863 228.959 215.627C229.623 216 229.876 216.65 229.877 217.474L229.858 225.582C230.024 226.084 229.887 225.707 230.441 225.95C230.487 226.718 230.305 229.228 230.554 229.706C230.888 229.552 232.091 224.93 232.129 224.579C232.333 222.714 232.843 223.855 232.141 222.039C231.743 221.007 232.208 220.126 232.767 219.566C232.776 218.916 232.661 219.11 232.727 218.544L232.768 216.245C232.714 215.748 232.592 215.824 232.625 215.577C232.628 215.56 232.64 215.526 232.645 215.508C232.817 214.762 232.927 213.509 232.714 212.748C232.513 212.03 232.774 212.486 232.727 211.627L232.199 211.219C232.161 209.814 232.056 210.299 232.86 209.624C232.903 208.353 232.833 207.456 232.97 206.308C233.066 205.506 233.129 204.062 233.154 202.577Z" fill="#3300CC"/>
<path fill-rule="evenodd" clip-rule="evenodd" d="M210.35 223.322C210.64 223.202 210.615 223.305 210.808 223.121C211.01 222.93 210.828 223.063 210.779 222.799L210.789 222.688C210.789 222.674 210.794 222.664 210.791 222.653C210.335 222.586 210.537 222.611 210.293 222.759L210.35 223.322ZM211.847 228.705C211.522 228.783 211.499 229.054 211.515 227.798C211.52 227.385 211.526 226.976 211.528 226.562C211.531 225.62 211.405 225.176 211.405 224.324L209.979 224.376C209.965 224.891 209.868 227.091 209.771 227.422C209.198 227.676 209.778 226.934 209.585 227.43L209.305 228.085L209.304 224.236C209.298 224.199 209.287 224.164 209.279 224.131C209.272 224.101 209.251 224.059 209.244 224.034C209.237 224.011 209.205 223.994 209.199 223.944C209.194 223.894 209.171 223.883 209.15 223.857C209.201 223.286 209.122 223.672 209.31 223.525L209.697 223.361C209.854 223.258 209.747 223.362 209.902 223.127C209.774 222.547 209.756 222.898 209.589 222.586C209.462 222.348 209.634 222.35 209.281 221.994C209.078 221.85 209.179 221.941 209.083 221.776C210.686 220.944 210.612 221.266 211.924 221.874C211.508 222.415 211.423 222.685 211.726 223.531C211.912 224.051 211.554 227.597 211.847 228.705Z" fill="#3300CC"/>
<path fill-rule="evenodd" clip-rule="evenodd" d="M200.405 223.02C200.183 223.084 199.885 223.003 199.855 222.996C199.765 222.972 199.842 222.843 199.516 222.904C199.259 222.953 199.309 223.113 199.093 223.221L199.168 222.749C199.74 223.008 199.33 222.88 199.485 222.537L199.468 222.144C200.03 222.013 199.799 221.912 200.386 221.777L200.405 223.02Z" fill="#3300CC"/>
<path fill-rule="evenodd" clip-rule="evenodd" d="M198.1 223.153L198.14 221.654C198.165 221.686 198.2 221.694 198.21 221.755L198.364 222.046C198.378 222.073 198.389 222.105 198.403 222.132C198.78 222.837 198.707 222.351 198.487 222.965C198.474 223.003 198.43 223.007 198.411 223.016C198.225 223.11 198.357 223.044 198.1 223.153Z" fill="#3300CC"/>
<path fill-rule="evenodd" clip-rule="evenodd" d="M234.418 241.871C233.778 240.737 234.314 241.167 234.474 239.988C234.583 239.188 235.842 234.818 236.079 234.532C236.378 234.895 236.103 235.193 236.375 235.997C236.522 236.437 236.327 236.118 236.57 236.44C237.042 236.451 237.584 236.459 238.054 236.442C239.25 236.4 238.348 236.18 239.147 236.094C239.268 236.276 239.222 236.256 239.317 236.41L239.83 237.342C240.185 237.845 240.536 237.624 240.753 238.257C241.166 239.465 240.589 240.356 241.237 241.598C241.669 241.217 241.629 241.315 241.618 240.619C241.601 239.632 241.419 237.635 241.848 236.934C242.137 237.266 241.849 237.636 242.107 238.15C242.252 238.438 242.628 238.691 242.953 238.835C243.899 238.28 243.811 238.105 243.862 236.804C244.184 236.621 244.387 236.549 244.62 236.524L244.678 236.382L243.71 236.211C243.697 236.207 243.664 236.193 243.651 236.189L243.29 236.036C243.233 236.887 242.954 236.987 242.954 236.987L242.702 237.214C242.213 237.457 242.248 237.204 242.247 237.203C241.982 237.375 242.544 237.41 242.135 236.926C241.884 236.628 242.733 236.685 241.633 236.681L242.217 236.467L242.035 236.133C242.019 236.108 241.971 236.034 241.94 236.006L241.535 236.137C241.511 236.143 241.44 236.175 241.409 236.183C240.815 236.337 240.848 236.159 240.13 236.159C240.196 236.151 240.166 236.311 239.872 236.298C239.847 236.296 239.763 236.279 239.74 236.278L239.515 236.313C239.718 235.687 239.608 235.914 239.608 235.086C239.491 235.072 239.444 235.096 239.147 235.009C238.623 235.929 238.633 234.992 238.565 235.914C238.088 235.914 237.068 236.069 237.254 235.349C237.385 234.844 237.401 234.998 237.91 234.977L238.475 235.05C238.498 235.053 238.536 235.061 238.554 235.064L236.969 235.054L237.01 233.765L236.661 233.766C236.487 233.475 236.964 233.725 236.454 234.029L236.079 234.227C236.02 234.145 236.098 234.271 236.101 234.175L236.09 234.04C236.089 234.033 236.087 233.999 236.079 233.981C235.588 234.031 235.33 234.038 234.943 233.981C234.955 234.038 234.891 234.341 235.219 234.227C233.507 234.227 234.056 234.149 233.838 234.532L235.309 234.517C235.304 235.045 234.197 237.661 233.94 238.322C234.139 238.67 233.867 238.443 234.298 238.645C234.283 238.661 234.249 238.696 234.242 238.678C234.235 238.66 234.194 238.706 234.185 238.711L233.839 238.891L233.871 240.209C233.7 241.262 233.38 240.815 233.04 240.977C233.442 241.129 233.419 241.226 233.44 241.776C233.445 241.387 233.459 241.39 233.654 241.132C233.759 241.543 233.692 241.554 233.624 242.083C233.982 241.962 233.917 241.965 233.947 241.982C233.956 241.987 233.978 242.014 233.988 242.022L234.237 242.328C234.465 242.081 234.439 242.286 234.418 241.871Z" fill="#0000FF"/>
<path fill-rule="evenodd" clip-rule="evenodd" d="M203.623 238.772C203.8 240.048 203.802 239.486 204.163 240.237C206.328 240.807 206.323 239.182 206.065 238.592C205.8 237.987 204.792 237.398 203.871 238.476C203.71 238.663 203.804 238.583 203.623 238.772Z" fill="#0000FF"/>
<path fill-rule="evenodd" clip-rule="evenodd" d="M232.759 238.167C232.472 237.808 231.469 235.208 231.34 234.52L232.79 234.547L232.759 238.167ZM245.97 232.113C245.652 233.583 245.219 235.01 244.678 236.381L243.71 236.211C243.697 236.207 243.664 236.193 243.652 236.189L243.29 236.036C243.234 236.887 242.955 236.987 242.955 236.987L242.702 237.214C242.213 237.457 242.248 237.204 242.247 237.203C241.982 237.375 242.545 237.41 242.135 236.926C241.884 236.628 242.733 236.685 241.633 236.681L242.217 236.467L242.035 236.133C242.019 236.108 241.971 236.034 241.941 236.006L241.535 236.137C241.512 236.143 241.441 236.175 241.409 236.183C240.815 236.337 240.848 236.159 240.13 236.159C240.196 236.151 240.166 236.311 239.872 236.298C239.847 236.296 239.763 236.279 239.74 236.278L239.515 236.313C239.718 235.687 239.608 235.914 239.608 235.085C239.491 235.072 239.444 235.096 239.147 235.009C238.623 235.929 238.633 234.992 238.565 235.914C238.088 235.914 237.068 236.069 237.254 235.349C237.385 234.844 237.401 234.998 237.91 234.977L238.475 235.05C238.498 235.053 238.536 235.061 238.554 235.064L236.969 235.054L237.01 233.765L236.661 233.766C236.487 233.475 236.964 233.725 236.454 234.029L236.079 234.227C236.02 234.145 236.098 234.271 236.101 234.175L236.09 234.04C236.089 234.033 236.088 233.999 236.079 233.981C235.588 234.031 235.33 234.038 234.943 233.981C234.955 234.038 234.891 234.341 235.219 234.227C233.507 234.227 234.056 234.149 233.838 234.532L233.94 238.322C234.139 238.67 233.867 238.443 234.298 238.645C234.283 238.661 234.249 238.696 234.242 238.678C234.235 238.66 234.194 238.706 234.185 238.711L233.839 238.891L233.871 240.209C233.7 241.262 233.38 240.815 233.04 240.977C233.442 241.129 233.419 241.226 233.44 241.776C233.445 241.387 233.459 241.39 233.654 241.132C233.759 241.543 233.692 241.554 233.624 242.083C233.982 241.962 233.917 241.965 233.947 241.982C233.956 241.987 233.978 242.014 233.988 242.022L234.237 242.328C234.465 242.081 234.439 242.285 234.418 241.871C234.491 242.143 235.05 243.241 234.443 244.134L234.088 244.521C233.731 244.879 234.09 244.959 234.024 245.576C234.001 245.788 233.936 246.277 233.933 246.623C233.93 246.977 233.909 247.392 233.92 247.737C233.936 248.208 234.058 248.465 234.033 248.669C234.03 248.69 234.019 248.724 234.014 248.745C233.958 249.002 233.883 248.894 233.861 249.509C233.522 249.727 233.176 249.937 232.826 250.14C232.806 249.623 232.734 249.103 232.645 248.719C232.64 248.7 232.628 248.667 232.625 248.65C232.592 248.403 232.714 248.48 232.768 247.982L232.727 245.683C232.661 245.117 232.776 245.312 232.767 244.661C232.208 244.102 231.743 243.22 232.141 242.188C232.843 240.373 232.333 241.513 232.129 239.648C232.091 239.297 230.888 234.675 230.554 234.521C230.305 234.999 230.487 237.509 230.441 238.277C229.887 238.521 230.024 238.143 229.858 238.645L229.877 246.753C229.876 247.577 229.623 248.227 228.959 248.6C228.72 248.364 228.527 248.258 228.453 247.972L228.1 247.44L227.363 247.429L227.141 247.782C227.125 247.81 227.104 247.858 227.09 247.881C227.077 247.906 227.057 247.951 227.039 247.984C226.926 248.203 226.628 248.466 226.381 248.594C225.123 247.57 225.443 246.9 225.443 244.906C225.443 243.331 225.455 241.749 225.439 240.175C224.244 240.34 222.053 239.928 221.54 240.068L221.502 243.103C220.751 243.174 220.105 243.108 219.372 243.103C218.165 243.096 219.119 243.491 217.673 243.521C216.151 243.554 214.862 243.527 213.399 243.408L213.317 242.328C212.578 241.813 212.742 242.219 212.747 240.98C212.754 239.13 212.913 240.141 212.975 239.143C213.053 237.907 213.04 236.198 213.003 234.948L212.147 235.123C211.912 235.661 212.548 235.432 211.847 235.522C211.523 235.443 211.499 235.172 211.516 236.429C211.521 236.841 211.527 237.25 211.529 237.665C211.532 238.607 211.405 239.051 211.405 239.904L209.98 239.851C209.965 239.336 209.869 237.136 209.771 236.804C209.198 236.551 209.779 237.292 209.585 236.797L209.305 236.143L206.949 236.108L206.881 234.501C205.847 234.544 206.515 234.982 206.245 236.414C206.084 237.268 205.608 237.61 204.899 237.838C202.695 237.019 203.826 236.62 203.379 234.528C202.489 234.491 203.031 234.91 202.816 236.543L200.968 236.596C200.406 236.692 200.76 236.532 200.512 236.804C200.326 237.782 200.391 240.283 200.626 241.136L200.406 241.208C200.183 241.143 199.885 241.223 199.856 241.231C199.766 241.255 199.842 241.384 199.516 241.322C199.259 241.274 199.309 241.114 199.093 241.006L199.169 241.477C198.59 241.472 199.007 241.45 198.857 241.592L199.039 241.852C199.192 242.008 199.112 241.996 199.413 242.138L199.485 241.69L199.468 242.083C200.03 242.214 199.8 242.315 200.386 242.45C200.496 242.753 200.546 242.652 200.747 242.944C200.247 243.052 199.806 243.372 199.245 243.386C198.875 243.394 198.531 243.19 198.232 242.984L197.908 242.696L198.14 242.573C198.165 242.541 198.2 242.533 198.211 242.471L198.364 242.18C198.379 242.154 198.39 242.122 198.404 242.095C198.78 241.389 198.708 241.875 198.488 241.262C198.474 241.225 198.43 241.22 198.412 241.211C198.226 241.116 198.358 241.183 198.1 241.074L197.86 240.84C198.174 240.484 198.195 236.661 197.88 236.078C197.864 236.048 197.808 235.977 197.793 235.95L197.733 235.828C197.65 235.65 197.771 235.843 197.661 235.64L197.577 235.512C197.373 235.192 197.781 235.929 197.47 235.367C197.246 234.963 197.349 235.067 197.319 234.561L196.503 234.515C196.165 236.882 196.894 237.517 196.986 238.726C196.303 238.861 195.327 238.832 194.458 238.845C193.379 236.744 192.563 234.485 192.051 232.113H245.97Z" fill="#0000FF"/>
<path d="M232.662 238.244C232.513 238.057 232.19 237.323 231.888 236.546C231.578 235.75 231.285 234.9 231.218 234.543L231.19 234.393L232.915 234.425L232.879 238.516L232.662 238.244ZM245.997 231.989L245.943 232.238H192.078L192.023 231.989H245.997ZM244.723 236.263L244.622 236.518C244.203 236.456 243.789 236.381 243.399 236.217C243.324 236.851 243.105 237.04 243.028 237.088L242.772 237.317L242.756 237.326C242.524 237.441 242.376 237.457 242.282 237.43C242.268 237.436 242.253 237.44 242.239 237.442C242.129 237.458 242.033 237.39 242.05 237.267C242.056 237.226 242.081 237.178 242.134 237.133C242.114 237.1 242.084 237.058 242.04 237.006C241.972 236.926 241.946 236.859 241.946 236.805L240.944 236.803L242.039 236.4L241.927 236.194L241.898 236.15C241.774 236.19 241.648 236.226 241.527 236.272C241.496 236.284 241.461 236.299 241.44 236.303C241.066 236.4 240.922 236.375 240.711 236.336C240.599 236.316 240.466 236.292 240.25 236.285L240.231 236.311C240.178 236.37 240.063 236.43 239.867 236.421C239.845 236.42 239.812 236.414 239.781 236.409L239.741 236.403L239.335 236.467L239.394 236.284H238.09L239.447 236.118C239.523 235.868 239.519 235.816 239.506 235.646C239.498 235.548 239.487 235.415 239.484 235.202C239.456 235.2 239.426 235.198 239.388 235.193L239.182 235.191C238.924 235.598 238.767 235.589 238.677 235.584C238.648 235.582 238.713 235.586 238.688 235.922L238.679 236.038H238.565C238.49 236.038 238.419 236.041 238.343 236.044C238.09 236.053 237.786 236.065 237.544 236.003C237.231 235.922 237.026 235.734 237.134 235.317L237.171 235.18L236.841 235.178L236.882 233.89H236.779C236.736 233.967 236.656 234.053 236.518 234.136L236.209 234.299C236.183 234.388 236.128 234.39 236.078 234.368L236.041 234.387C235.98 234.302 235.919 234.22 235.856 234.137L235.26 234.344C235.12 234.393 235.023 234.387 234.957 234.35L234.502 234.346C234.237 234.344 234.095 234.342 234.026 234.351C234.02 234.401 234.011 234.469 233.963 234.561L234.063 238.287C234.102 238.359 234.123 238.408 234.135 238.442C234.176 238.457 234.243 238.482 234.351 238.533L234.514 238.61L234.378 238.741C234.359 238.759 234.331 238.786 234.296 238.799L234.262 238.808L234.242 238.821L233.964 238.966C233.971 239.24 234.028 240.011 233.993 240.228C233.929 240.627 233.841 240.838 233.735 240.949L233.775 241.101C233.858 241.427 233.841 241.521 233.798 241.771L233.776 241.898C233.811 241.885 233.853 241.867 233.888 241.856C233.959 241.834 233.975 241.846 234.013 241.876C234.034 241.889 234.05 241.907 234.064 241.923L234.248 242.144C234.273 242.124 234.292 242.11 234.308 242.099C234.309 242.097 234.309 242.099 234.309 242.101L234.302 242.02L234.234 240.72L234.538 241.839C234.547 241.874 234.567 241.927 234.591 241.993C234.751 242.429 235.101 243.385 234.546 244.204C234.485 244.295 234.262 244.522 234.176 244.608C234.021 244.763 234.046 244.85 234.085 244.986C234.127 245.127 234.178 245.305 234.147 245.588L234.131 245.735C234.102 245.978 234.059 246.353 234.057 246.624C234.056 246.75 234.053 246.881 234.049 247.013C234.043 247.259 234.037 247.511 234.045 247.734C234.052 247.968 234.088 248.151 234.118 248.298C234.147 248.449 234.17 248.567 234.156 248.684C234.154 248.705 234.147 248.728 234.141 248.749L234.135 248.771C234.115 248.867 234.091 248.919 234.069 248.969C234.036 249.042 234.004 249.112 233.989 249.425L233.735 249.588L233.736 249.558C233.749 249.073 233.794 248.973 233.842 248.867C233.859 248.829 233.877 248.79 233.892 248.719C233.899 248.7 233.904 248.674 233.909 248.654C233.918 248.576 233.899 248.474 233.873 248.346C233.843 248.191 233.805 247.998 233.796 247.741C233.789 247.513 233.795 247.257 233.802 247.008C233.805 246.875 233.808 246.742 233.809 246.622C233.811 246.332 233.855 245.953 233.884 245.707L233.901 245.562C233.926 245.326 233.882 245.175 233.847 245.054C233.783 244.834 233.743 244.693 233.997 244.437L234.347 244.056C234.744 243.462 234.587 242.758 234.439 242.31C234.413 242.33 234.376 242.359 234.328 242.412L234.231 242.516L233.904 242.115C233.859 242.133 233.785 242.159 233.663 242.2L233.475 242.263L233.501 242.067C233.517 241.942 233.532 241.852 233.545 241.778L233.316 241.78L233.313 241.684C233.299 241.287 233.295 241.206 232.997 241.094L232.724 240.992L232.987 240.866C233.113 240.805 233.226 240.81 233.333 240.815C233.498 240.822 233.644 240.827 233.747 240.2L233.712 238.816L234.007 238.663C233.985 238.656 233.971 238.65 233.95 238.632C233.916 238.6 233.912 238.582 233.905 238.545C233.902 238.53 233.896 238.494 233.833 238.384L233.817 238.357C233.787 237.072 233.751 235.785 233.714 234.5L233.73 234.471C233.769 234.401 233.776 234.35 233.78 234.314C233.794 234.203 233.802 234.146 233.951 234.112C234.036 234.094 234.187 234.095 234.504 234.099L234.823 234.101C234.821 234.073 234.821 234.046 234.821 234.024L234.822 234.005L234.787 233.832L234.962 233.858C235.149 233.885 235.305 233.898 235.471 233.896C235.534 233.896 235.601 233.895 235.671 233.891L234.909 232.874L235.908 233.872L236.154 233.848L236.191 233.928C236.206 233.959 236.21 233.995 236.212 234.015L236.395 233.919C236.469 233.875 236.514 233.837 236.541 233.805C236.501 233.731 236.492 233.673 236.498 233.633C236.524 233.483 236.638 233.463 236.743 233.554C236.766 233.573 236.789 233.603 236.804 233.641L237.138 233.641L237.097 234.931L237.274 234.932C237.346 234.836 237.442 234.84 237.636 234.85C237.706 234.853 237.795 234.858 237.905 234.853C238.101 234.845 238.768 234.975 238.999 235.017L239.089 234.861L239.182 234.889C239.388 234.95 239.462 234.953 239.53 234.955C239.561 234.957 239.591 234.958 239.622 234.962L239.733 234.975V235.148L240.003 235.197L239.733 235.195C239.736 235.404 239.746 235.532 239.753 235.627C239.767 235.807 239.772 235.878 239.716 236.085L240.114 236.036L240.149 236.035C240.442 236.036 240.614 236.067 240.754 236.092C240.934 236.125 241.056 236.146 241.378 236.063L241.5 236.017L241.972 235.865L242.025 235.915C242.042 235.931 242.062 235.955 242.079 235.979C242.103 236.011 242.128 236.05 242.139 236.066C242.227 236.213 242.311 236.38 242.394 236.533L242.277 236.576C242.491 236.683 242.405 236.729 242.258 236.804L242.247 236.81C242.236 236.816 242.215 236.828 242.23 236.845C242.275 236.9 242.311 236.95 242.338 236.996L242.371 236.974V237.059C242.397 237.115 242.409 237.164 242.412 237.205C242.449 237.194 242.515 237.167 242.631 237.111L242.882 236.884L242.907 236.872C242.914 236.869 243.116 236.787 243.166 236.028L243.177 235.855C243.365 235.934 243.552 236.014 243.741 236.091L244.723 236.263ZM232.947 250.068C232.866 250.116 232.786 250.163 232.705 250.21C232.689 249.68 232.615 249.141 232.523 248.747L232.518 248.728C232.512 248.708 232.505 248.686 232.502 248.666C232.481 248.513 232.507 248.456 232.547 248.367C232.576 248.301 232.618 248.209 232.644 247.975L232.603 245.694C232.567 245.377 232.585 245.283 232.608 245.16C232.624 245.072 232.644 244.966 232.644 244.712C232.334 244.393 232.057 243.978 231.935 243.493C231.832 243.086 231.838 242.63 232.026 242.143C232.425 241.109 232.414 241.085 232.313 240.882C232.227 240.71 232.089 240.434 232.006 239.661C231.981 239.446 231.507 237.576 231.072 236.16C230.888 235.559 230.716 235.045 230.603 234.794C230.521 235.269 230.542 236.257 230.56 237.088C230.57 237.586 230.58 238.03 230.565 238.284L230.561 238.36L230.491 238.391C230.236 238.502 230.105 238.497 230.03 238.49C230.025 238.51 230.018 238.555 229.987 238.648L229.981 238.666L230.001 246.752C230 247.182 229.933 247.569 229.779 247.898C229.621 248.234 229.375 248.509 229.019 248.708L228.938 248.754L228.872 248.688C228.82 248.637 228.765 248.588 228.714 248.542C228.542 248.387 228.407 248.265 228.339 248.024L228.032 247.562L227.43 247.554L227.248 247.844L227.149 248.04C227.087 248.16 226.98 248.288 226.856 248.403C226.727 248.524 226.575 248.632 226.438 248.704L226.366 248.742L226.303 248.69C225.232 247.819 225.253 247.2 225.297 245.891C225.307 245.608 225.318 245.289 225.318 244.906L225.321 243.454C225.323 242.407 225.326 241.359 225.316 240.314C224.659 240.379 223.775 240.302 223.014 240.236C222.431 240.186 221.92 240.142 221.663 240.172L221.625 243.216L221.514 243.226C220.992 243.275 220.523 243.26 220.044 243.243C219.823 243.236 219.6 243.228 219.372 243.227C218.847 243.224 218.784 243.293 218.715 243.369C218.603 243.493 218.48 243.628 217.676 243.645C216.913 243.661 216.209 243.663 215.511 243.645C214.808 243.627 214.118 243.591 213.388 243.532L213.282 243.523L213.197 242.396C213.077 242.314 212.984 242.259 212.912 242.216C212.761 242.127 212.685 242.081 212.639 241.972C212.597 241.874 212.601 241.758 212.61 241.524C212.615 241.389 212.622 241.212 212.623 240.98C212.628 239.856 212.692 239.745 212.76 239.631C212.793 239.574 212.827 239.516 212.851 239.135C212.886 238.579 212.903 237.931 212.908 237.275C212.912 236.524 212.902 235.756 212.883 235.099L212.237 235.231C212.188 235.364 212.224 235.379 212.231 235.381C212.397 235.455 212.567 235.543 212.732 235.623C212.567 235.623 212.333 235.637 212.176 235.623C212.155 235.622 212.075 235.618 211.863 235.645L211.839 235.648L211.818 235.643C211.753 235.627 211.7 235.605 211.657 235.587L211.605 235.566C211.584 235.566 211.63 235.719 211.64 236.428L211.642 236.611C211.646 236.961 211.651 237.31 211.652 237.665C211.654 238.157 211.621 238.515 211.589 238.864C211.559 239.181 211.53 239.492 211.53 239.904V240.032L209.859 239.97L209.856 239.854C209.847 239.54 209.807 238.585 209.754 237.817C209.735 237.521 209.712 237.256 209.69 237.072C209.681 237.078 209.672 237.083 209.662 237.087C209.589 237.115 209.492 237.058 209.438 236.97C209.395 236.9 209.369 236.806 209.402 236.732L209.413 236.711L209.223 236.265L206.829 236.23L206.762 234.634C206.376 234.674 206.388 234.824 206.416 235.172C206.439 235.468 206.472 235.878 206.367 236.437C206.281 236.891 206.109 237.212 205.864 237.45C205.62 237.686 205.308 237.837 204.937 237.956L204.895 237.969L204.855 237.954C203.296 237.375 203.315 236.987 203.358 236.12C203.376 235.748 203.399 235.278 203.277 234.65C203.037 234.652 202.976 234.714 202.969 234.871C202.966 234.952 202.972 235.059 202.978 235.187C202.996 235.501 203.02 235.945 202.938 236.559L202.925 236.664L200.982 236.719C200.844 236.743 200.757 236.751 200.704 236.754C200.688 236.782 200.665 236.816 200.627 236.859C200.541 237.347 200.513 238.188 200.535 239.017C200.558 239.861 200.631 240.686 200.746 241.102L200.778 241.217L200.408 241.337L200.372 241.327C200.203 241.278 199.972 241.33 199.905 241.346C199.863 241.408 199.814 241.476 199.619 241.462L199.596 241.987C199.819 242.047 199.901 242.104 199.984 242.16C200.061 242.213 200.14 242.266 200.414 242.329L200.479 242.344L200.502 242.408C200.556 242.555 200.59 242.586 200.642 242.634C200.693 242.68 200.756 242.739 200.849 242.873L200.955 243.026L200.774 243.065C200.584 243.106 200.399 243.181 200.212 243.257C199.912 243.378 199.609 243.501 199.248 243.51C199.042 243.515 198.846 243.461 198.661 243.379C198.483 243.299 198.316 243.193 198.161 243.086C198.033 243 197.823 242.787 197.691 242.671L198.063 242.474L198.089 242.45L198.092 242.431L198.255 242.123L198.294 242.037C198.407 241.826 198.48 241.718 198.523 241.657L198.533 241.645C198.5 241.596 198.446 241.509 198.381 241.332C198.335 241.312 198.291 241.29 198.247 241.267L198.226 241.258C198.2 241.249 198.156 241.233 198.052 241.189L198.031 241.18L197.689 240.847L197.767 240.758C197.904 240.603 197.978 239.584 197.982 238.532C197.986 237.479 197.918 236.409 197.771 236.137L197.732 236.081C197.712 236.055 197.693 236.028 197.684 236.01C197.664 235.967 197.639 235.923 197.62 235.881C197.587 235.808 197.57 235.754 197.566 235.715C197.555 235.704 197.552 235.7 197.543 235.686C197.524 235.671 197.503 235.649 197.481 235.619C197.474 235.619 197.469 235.617 197.466 235.612L197.443 235.564C197.418 235.527 197.392 235.481 197.362 235.428C197.19 235.117 197.191 235.074 197.198 234.883C197.2 234.833 197.202 234.769 197.2 234.68L196.611 234.646C196.418 236.112 196.651 236.885 196.86 237.574C196.972 237.945 197.077 238.294 197.11 238.716L197.117 238.826L197.009 238.848C196.455 238.958 195.716 238.962 194.994 238.965C194.835 238.965 194.677 238.966 194.523 238.968C194.481 238.886 194.438 238.805 194.396 238.722C194.591 238.719 194.791 238.718 194.993 238.717C195.654 238.714 196.329 238.71 196.851 238.624C196.813 238.277 196.72 237.971 196.622 237.646C196.401 236.915 196.152 236.094 196.38 234.497L196.396 234.385L197.436 234.444L197.443 234.554C197.452 234.714 197.448 234.816 197.446 234.891C197.441 235.027 197.44 235.057 197.578 235.307C197.583 235.315 197.584 235.323 197.584 235.331C197.615 235.354 197.647 235.391 197.682 235.446L197.771 235.58C197.828 235.688 197.854 235.758 197.858 235.801L197.902 235.89L197.934 235.937C197.955 235.966 197.978 235.998 197.989 236.02C198.156 236.328 198.234 237.447 198.23 238.533C198.226 239.504 198.152 240.464 198.012 240.815L198.169 240.969C198.258 241.005 198.291 241.018 198.311 241.025L198.346 241.04C198.37 241.05 198.391 241.061 198.45 241.091L198.467 241.099C198.513 241.114 198.574 241.134 198.605 241.22C198.637 241.31 198.665 241.373 198.689 241.42C198.71 241.401 198.748 241.38 198.808 241.359C198.835 241.348 198.87 241.348 198.951 241.35L199.023 241.352L198.932 240.786L199.149 240.895C199.27 240.956 199.322 241.025 199.371 241.089C199.391 241.117 199.412 241.143 199.443 241.164L199.699 239.562L199.629 241.215C199.689 241.222 199.695 241.212 199.701 241.205C199.726 241.167 199.751 241.132 199.82 241.112L199.825 241.11C199.862 241.1 200.155 241.023 200.402 241.078L200.478 241.054C200.374 240.594 200.308 239.814 200.287 239.023C200.264 238.16 200.295 237.278 200.389 236.781L200.395 236.746L200.42 236.72C200.489 236.644 200.494 236.625 200.496 236.617C200.505 236.57 200.515 236.546 200.572 236.521C200.601 236.508 200.614 236.509 200.642 236.509C200.674 236.508 200.748 236.508 200.947 236.473C201.349 236.408 202.249 236.435 202.706 236.422C202.768 235.885 202.746 235.487 202.731 235.2C202.723 235.066 202.718 234.955 202.721 234.861C202.737 234.497 202.86 234.383 203.383 234.404L203.481 234.408L203.5 234.502C203.651 235.209 203.625 235.726 203.606 236.131C203.569 236.866 203.553 237.2 204.901 237.707C205.221 237.6 205.487 237.468 205.691 237.272C205.9 237.069 206.048 236.79 206.123 236.391C206.222 235.866 206.19 235.475 206.168 235.192C206.122 234.624 206.104 234.409 206.876 234.378L206.999 234.373L207.067 235.985L209.387 236.02L209.65 236.635C209.699 236.643 209.755 236.661 209.821 236.69L209.874 236.714L209.89 236.769C209.93 236.906 209.969 237.317 210.002 237.8C210.049 238.487 210.086 239.334 210.1 239.731L211.282 239.775C211.288 239.422 211.315 239.134 211.341 238.842C211.373 238.498 211.406 238.146 211.404 237.665C211.403 237.315 211.399 236.964 211.394 236.614L211.392 236.43C211.38 235.519 211.396 235.321 211.602 235.318C211.653 235.318 211.697 235.336 211.751 235.358C211.782 235.37 211.817 235.385 211.855 235.396L211.968 235.383C211.96 235.307 211.975 235.206 212.033 235.073L212.058 235.014L213.123 234.796L213.128 234.943C213.148 235.633 213.16 236.463 213.155 237.276C213.151 237.942 213.134 238.596 213.099 239.151C213.071 239.589 213.021 239.674 212.974 239.756C212.923 239.842 212.875 239.924 212.871 240.98C212.87 241.222 212.863 241.399 212.858 241.533C212.85 241.73 212.847 241.829 212.867 241.876C212.881 241.91 212.934 241.941 213.038 242.002C213.124 242.054 213.238 242.122 213.387 242.225L213.436 242.259L213.514 243.292C214.208 243.347 214.861 243.381 215.517 243.397C216.21 243.415 216.912 243.413 217.671 243.397C218.367 243.383 218.453 243.289 218.531 243.202C218.639 243.084 218.739 242.975 219.373 242.979C219.608 242.98 219.831 242.988 220.051 242.996C220.49 243.01 220.917 243.025 221.381 242.989L221.418 239.974L221.508 239.949C221.763 239.879 222.35 239.93 223.035 239.988C223.84 240.058 224.784 240.139 225.421 240.051L225.561 240.032L225.563 240.173C225.574 241.265 225.571 242.36 225.569 243.454L225.567 244.906C225.567 245.267 225.555 245.602 225.546 245.899C225.505 247.097 225.485 247.678 226.394 248.444C226.492 248.385 226.595 248.307 226.687 248.222C226.792 248.124 226.881 248.02 226.929 247.928C227.052 247.71 227.155 247.527 227.295 247.305L228.167 247.317L228.567 247.919L228.573 247.941C228.619 248.123 228.734 248.225 228.881 248.358L228.977 248.445C229.243 248.277 229.431 248.057 229.554 247.793C229.692 247.499 229.752 247.147 229.753 246.752L229.733 238.625L229.751 238.571C229.815 238.376 229.838 238.308 229.904 238.266C229.955 238.235 229.99 238.238 230.042 238.242C230.086 238.247 230.162 238.254 230.321 238.193C230.33 237.936 230.321 237.536 230.312 237.094C230.29 236.068 230.263 234.813 230.445 234.464L230.5 234.359L230.607 234.408C230.769 234.483 231.037 235.202 231.309 236.087C231.747 237.516 232.228 239.412 232.252 239.636C232.332 240.361 232.457 240.613 232.535 240.772C232.68 241.062 232.696 241.096 232.257 242.233C232.09 242.666 232.084 243.071 232.176 243.433C232.291 243.887 232.559 244.277 232.855 244.572L232.89 244.608L232.891 244.659C232.895 244.976 232.871 245.102 232.852 245.205C232.833 245.308 232.818 245.385 232.851 245.669C232.888 246.127 232.936 247.573 232.891 247.994C232.861 248.273 232.809 248.387 232.773 248.469C232.751 248.519 232.737 248.55 232.748 248.634L232.766 248.691C232.852 249.065 232.923 249.564 232.947 250.068ZM232.119 236.457C232.303 236.928 232.491 237.379 232.639 237.693L232.665 234.669L231.496 234.647C231.598 235.045 231.852 235.77 232.119 236.457ZM238.69 235.336C238.722 235.338 238.773 235.341 238.886 235.189L237.436 235.181C237.417 235.224 237.398 235.287 237.374 235.38C237.315 235.612 237.43 235.717 237.607 235.763C237.813 235.816 238.097 235.805 238.333 235.796L238.449 235.791C238.489 235.326 238.532 235.328 238.69 235.336ZM233.56 241.051C233.521 241.06 233.481 241.064 233.44 241.065C233.46 241.088 233.477 241.114 233.491 241.142L233.56 241.051ZM233.583 241.491C233.574 241.532 233.57 241.58 233.567 241.646C233.576 241.589 233.582 241.54 233.583 241.491ZM234.309 242.102C234.309 242.107 234.305 242.119 234.31 242.108L234.309 242.102ZM230.035 238.478C230.042 238.473 230.048 238.47 230.037 238.476L230.035 238.478ZM199.402 241.421C199.347 241.402 199.307 241.378 199.274 241.352L199.315 241.602L199.014 241.599L199.135 241.773C199.176 241.816 199.201 241.846 199.221 241.871C199.245 241.901 199.26 241.919 199.317 241.952L199.402 241.421ZM198.936 241.923L198.783 241.702C198.773 241.73 198.754 241.757 198.727 241.796C198.687 241.855 198.618 241.957 198.513 242.154L198.474 242.238L198.329 242.513C198.312 242.583 198.28 242.612 198.247 242.641L198.222 242.67L198.123 242.722L198.308 242.886C198.451 242.984 198.604 243.082 198.762 243.152C198.917 243.222 199.078 243.265 199.243 243.262C199.555 243.255 199.84 243.139 200.118 243.026C200.255 242.971 200.391 242.916 200.532 242.872C200.51 242.85 200.491 242.832 200.473 242.816C200.405 242.753 200.355 242.708 200.293 242.556C200.025 242.488 199.934 242.426 199.845 242.366C199.778 242.321 199.713 242.276 199.524 242.225L199.51 242.322L199.36 242.251C199.116 242.136 199.093 242.107 199.028 242.028C199.011 242.005 198.988 241.978 198.95 241.938L198.936 241.923ZM198.544 241.641L198.546 241.634C198.547 241.618 198.546 241.629 198.544 241.641ZM198.467 241.099C198.468 241.1 198.469 241.101 198.467 241.099V241.099Z" fill="#0000FF"/>
<path fill-rule="evenodd" clip-rule="evenodd" d="M210.35 240.905C210.64 241.025 210.615 240.922 210.808 241.105C211.01 241.297 210.828 241.164 210.779 241.428L210.789 241.539C210.789 241.553 210.794 241.563 210.791 241.574C210.335 241.641 210.537 241.615 210.293 241.468L210.35 240.905ZM211.847 235.522C211.522 235.443 211.499 235.172 211.515 236.429C211.52 236.841 211.526 237.25 211.528 237.665C211.531 238.607 211.405 239.05 211.405 239.904L209.979 239.851C209.965 239.336 209.868 237.136 209.771 236.804C209.198 236.551 209.778 237.292 209.585 236.797L209.305 236.143L209.304 239.991C209.298 240.028 209.287 240.063 209.279 240.096C209.272 240.127 209.251 240.168 209.244 240.192C209.237 240.216 209.205 240.233 209.199 240.283C209.194 240.332 209.171 240.344 209.15 240.369C209.201 240.94 209.122 240.555 209.31 240.702L209.697 240.866C209.854 240.969 209.747 240.864 209.902 241.1C209.774 241.68 209.756 241.328 209.589 241.641C209.462 241.879 209.634 241.878 209.281 242.233C209.078 242.377 209.179 242.285 209.083 242.451C210.686 243.282 210.612 242.961 211.924 242.353C211.508 241.812 211.423 241.542 211.726 240.696C211.912 240.176 211.554 236.63 211.847 235.522Z" fill="#0000FF"/>
<path fill-rule="evenodd" clip-rule="evenodd" d="M200.405 241.208C200.183 241.143 199.885 241.223 199.855 241.231C199.765 241.255 199.842 241.384 199.516 241.322C199.259 241.274 199.309 241.114 199.093 241.006L199.168 241.477C199.74 241.219 199.33 241.346 199.485 241.69L199.468 242.082C200.03 242.214 199.799 242.315 200.386 242.45L200.405 241.208Z" fill="#0000FF"/>
<path fill-rule="evenodd" clip-rule="evenodd" d="M198.1 241.074L198.14 242.573C198.165 242.541 198.2 242.533 198.21 242.471L198.364 242.18C198.378 242.154 198.389 242.122 198.403 242.095C198.78 241.389 198.707 241.875 198.487 241.262C198.474 241.225 198.43 241.22 198.411 241.211C198.225 241.116 198.357 241.183 198.1 241.074Z" fill="#0000FF"/>
<path d="M244.558 202.743C244.099 202.235 244.138 201.451 244.646 200.993C245.153 200.533 245.937 200.573 246.395 201.08C250.617 205.75 253.616 211.428 255.076 217.56C256.485 223.474 256.467 229.821 254.741 236.107C253.115 242.03 250.153 247.228 246.27 251.466C242.238 255.865 237.216 259.228 231.666 261.291C231.025 261.53 230.311 261.204 230.072 260.562C229.833 259.92 230.159 259.207 230.801 258.968C235.988 257.04 240.68 253.899 244.442 249.794C248.067 245.838 250.831 240.985 252.35 235.456C253.959 229.594 253.973 223.666 252.656 218.134C251.289 212.397 248.492 207.094 244.558 202.743ZM192.033 248.837C192.476 249.36 192.411 250.144 191.888 250.586C191.364 251.029 190.581 250.964 190.138 250.44C186.204 245.805 183.432 240.249 182.107 234.273C180.831 228.517 180.9 222.376 182.569 216.297C184.5 209.26 188.313 203.249 193.313 198.658C198.48 193.913 204.919 190.679 211.865 189.393C212.538 189.269 213.185 189.715 213.308 190.389C213.432 191.063 212.986 191.709 212.312 191.833C205.833 193.033 199.822 196.053 194.995 200.485C190.322 204.776 186.762 210.387 184.96 216.948C183.401 222.627 183.336 228.364 184.528 233.738C185.764 239.312 188.355 244.501 192.033 248.837Z" fill="#FEFEFE" fill-opacity="0.8"/>
</svg>
